<?xml version="1.0" encoding="UTF-8"?>
<svg id="Layer_1" data-name="Layer 1" xmlns="http://www.w3.org/2000/svg" viewBox="0 0 312.05 490.92">
  <defs>
    <style>
      .cls-1 {
        fill: #2e3c49;
        stroke-width: 0px;
      }
    </style>
  </defs>
  <polygon class="cls-1" points="187.92 280.52 238.29 230.15 288.66 280.52 311.56 280.52 241.9 210.39 69.66 210.39 0 280.04 0 280.52 187.92 280.52"/>
  <polyline class="cls-1" points="311.35 69.9 136.56 69.9 70.14 69.9 70.14 69.66 70.14 186.63 69.66 187.02 0 256.68 0 69.66 69.66 0 241.9 0 311.56 69.66"/>
  <polygon class="cls-1" points="312.05 490.92 69.66 490.92 0 420.77 0 420.53 0 297.04 0 297.04 70.14 297.04 70.14 296.79 70.14 297.04 70.14 420.53 241.98 420.53 312.05 490.92"/>
  <polygon class="cls-1" points="265.38 265.64 238.39 238.66 220.81 256.24 238.39 247.67 265.38 265.64"/>
  <circle class="cls-1" cx="96.24" cy="394.19" r="18.73"/>
</svg>